<svg version="1.1" id="Layer_1" xmlns="http://www.w3.org/2000/svg" xmlns:xlink="http://www.w3.org/1999/xlink" x="0px" y="0px"
	 width="100%" viewBox="0 0 1000 1000"  xml:space="preserve">
<path fill="#FFFFFF" opacity="1.000000" stroke="none" 
	d="
M0.999998,921.000000 
	C1.000000,641.303955 1.000000,361.607941 1.342380,81.753571 
	C2.123079,80.776314 2.782901,80.004143 2.967137,79.131561 
	C6.981841,60.117249 16.156996,43.743046 29.639446,30.058924 
	C43.282005,16.212303 59.891445,7.126837 79.032059,2.936510 
	C79.792885,2.769948 80.348679,1.666773 81.000000,1.000000 
	C360.696045,1.000000 640.392090,1.000000 920.246460,1.342390 
	C921.223755,2.123089 921.995911,2.782886 922.868530,2.967133 
	C941.882812,6.981900 958.256958,16.157021 971.941101,29.639469 
	C985.787720,43.282017 994.873108,59.891499 999.063477,79.032074 
	C999.230042,79.792900 1000.333252,80.348686 1001.000000,81.000000 
	C1001.000000,360.696045 1001.000000,640.392090 1000.657593,920.246460 
	C999.876892,921.223694 999.217163,921.995850 999.032898,922.868469 
	C995.018188,941.882751 985.842896,958.256897 972.360657,971.941162 
	C958.718201,985.788086 942.108398,994.872742 922.968018,999.063416 
	C922.207153,999.230042 921.651367,1000.333252 921.000000,1001.000000 
	C641.303955,1001.000000 361.607941,1001.000000 81.753586,1000.657593 
	C80.776321,999.876892 80.004143,999.217102 79.131531,999.032837 
	C60.117290,995.018066 43.743095,985.842957 30.058861,972.360657 
	C16.212046,958.718201 7.127092,942.108459 2.936520,922.968018 
	C2.769923,922.207153 1.666770,921.651367 0.999998,921.000000 
M320.077332,361.100098 
	C295.914154,361.089203 271.750671,361.005249 247.587891,361.098114 
	C235.380585,361.145020 224.467819,368.872528 220.155960,380.127625 
	C215.823715,391.436005 218.532089,403.817749 227.389328,412.381042 
	C234.681625,419.874207 243.931839,421.443054 253.762054,420.812866 
	C269.845612,419.781738 282.966278,425.265198 293.106018,438.709625 
	C298.055298,446.282410 300.296539,454.527710 300.138489,463.632233 
	C299.922791,476.061279 300.191711,488.498749 300.085083,501.872131 
	C300.080078,512.863586 300.071472,523.855042 300.070892,534.846497 
	C300.069824,555.663635 299.819061,576.484863 300.147186,597.296814 
	C300.470459,617.798523 316.384735,633.647339 336.157715,633.834290 
	C355.331696,634.015503 372.621338,618.892822 372.874756,600.346252 
	C373.327393,567.217834 372.929199,534.077759 373.049591,500.025024 
	C373.056915,487.699890 372.656891,475.355377 373.242706,463.057800 
	C373.537415,456.871552 374.647888,450.346741 377.095581,444.716827 
	C382.668701,431.898315 392.869812,424.270386 407.105743,421.425873 
	C409.508606,429.501862 411.758179,437.119476 414.041901,444.726837 
	C419.672211,463.482239 425.318237,482.232941 430.915497,501.781433 
	C440.620819,534.744019 450.215607,567.739685 460.073212,600.656677 
	C465.916656,620.169373 484.742279,633.832031 505.092834,633.834473 
	C528.895081,633.837219 546.879517,618.437256 553.187012,592.376526 
	C564.481750,555.398438 575.776428,518.420349 587.071167,481.442261 
	C587.682068,481.474792 588.292969,481.507324 588.903870,481.539856 
	C589.539062,483.324463 590.248047,485.086639 590.798401,486.896973 
	C602.247559,524.556091 613.622559,562.237854 625.136047,599.877319 
	C631.306580,620.049866 649.640625,633.747986 670.190247,633.835876 
	C691.403442,633.926575 709.680725,620.769043 716.048645,600.406982 
	C720.906311,584.874084 725.358887,569.214355 729.973328,553.605652 
	C743.911133,506.460663 757.916443,459.335266 771.660828,412.133972 
	C773.120544,407.121002 774.006775,401.558899 773.488708,396.419922 
	C771.497559,376.667114 756.370361,362.113892 737.642578,361.097412 
	C718.111572,360.037384 701.581543,372.762268 697.191650,392.494690 
	C688.349365,432.241150 679.633179,472.015656 670.840637,511.773193 
	C669.544617,517.633728 668.115662,523.464844 666.748108,529.309509 
	C666.241150,529.336304 665.734192,529.363159 665.227173,529.389954 
	C664.711670,527.971191 664.084778,526.582031 663.698364,525.129028 
	C660.752319,514.050903 657.853210,502.960419 654.939514,491.873749 
	C646.239197,458.768677 637.617004,425.642822 628.811829,392.565704 
	C622.592529,369.202728 597.442017,355.317108 575.176392,363.088287 
	C560.013977,368.390656 550.758728,378.940521 546.779541,394.462921 
	C541.629028,414.554382 536.190613,434.571869 530.944275,454.639069 
	C526.918579,470.037781 522.998352,485.464111 518.622437,501.516510 
	C516.116577,510.698761 513.610779,519.881042 511.104919,529.063293 
	C510.522614,528.984253 509.940308,528.905273 509.358002,528.826233 
	C507.182709,519.519897 505.007446,510.213501 502.878784,500.134125 
	C501.272736,492.995239 499.648529,485.860413 498.063812,478.716797 
	C491.616455,449.653351 485.301819,420.559784 478.699066,391.531738 
	C474.302551,372.202881 457.341278,359.802490 437.208160,361.229889 
	C433.927307,361.189514 430.646423,361.110901 427.365601,361.114624 
	C391.911621,361.154877 356.457672,361.208099 320.077332,361.100098 
z"/>
<path fill="#010101" opacity="1.000000" stroke="none" 
	d="
M80.531342,1.000000 
	C80.348679,1.666773 79.792885,2.769948 79.032059,2.936510 
	C59.891445,7.126837 43.282005,16.212303 29.639446,30.058924 
	C16.156996,43.743046 6.981841,60.117249 2.967137,79.131561 
	C2.782901,80.004143 2.123079,80.776314 1.342380,81.297623 
	C1.000000,54.406445 1.000000,27.812887 1.000000,1.000000 
	C27.353823,1.000000 53.708252,1.000000 80.531342,1.000000 
z"/>
<path fill="#010101" opacity="1.000000" stroke="none" 
	d="
M1001.000000,80.531342 
	C1000.333252,80.348686 999.230042,79.792900 999.063477,79.032074 
	C994.873108,59.891499 985.787720,43.282017 971.941101,29.639469 
	C958.256958,16.157021 941.882812,6.981900 922.868530,2.967133 
	C921.995911,2.782886 921.223755,2.123089 920.702393,1.342390 
	C947.593567,1.000000 974.187073,1.000000 1001.000000,1.000000 
	C1001.000000,27.353823 1001.000000,53.708252 1001.000000,80.531342 
z"/>
<path fill="#010101" opacity="1.000000" stroke="none" 
	d="
M0.999998,921.468628 
	C1.666770,921.651367 2.769923,922.207153 2.936520,922.968018 
	C7.127092,942.108459 16.212046,958.718201 30.058861,972.360657 
	C43.743095,985.842957 60.117290,995.018066 79.131531,999.032837 
	C80.004143,999.217102 80.776321,999.876892 81.297638,1000.657593 
	C54.406445,1001.000000 27.812891,1001.000000 1.000000,1001.000000 
	C1.000000,974.646179 1.000000,948.291748 0.999998,921.468628 
z"/>
<path fill="#010101" opacity="1.000000" stroke="none" 
	d="
M921.468628,1001.000000 
	C921.651367,1000.333252 922.207153,999.230042 922.968018,999.063416 
	C942.108398,994.872742 958.718201,985.788086 972.360657,971.941162 
	C985.842896,958.256897 995.018188,941.882751 999.032898,922.868469 
	C999.217163,921.995850 999.876892,921.223694 1000.657593,920.702393 
	C1001.000000,947.593567 1001.000000,974.187073 1001.000000,1001.000000 
	C974.646179,1001.000000 948.291748,1001.000000 921.468628,1001.000000 
z"/>
<path fill="#1F1E33" opacity="1.000000" stroke="none" 
	d="
M575.896912,363.137787 
	C597.442017,355.317108 622.592529,369.202728 628.811829,392.565704 
	C637.617004,425.642822 646.239197,458.768677 654.939514,491.873749 
	C657.853210,502.960419 660.752319,514.050903 663.698364,525.129028 
	C664.084778,526.582031 664.711670,527.971191 665.227173,529.389954 
	C665.734192,529.363159 666.241150,529.336304 666.748108,529.309509 
	C668.115662,523.464844 669.544617,517.633728 670.840637,511.773193 
	C679.633179,472.015656 688.349365,432.241150 697.191650,392.494690 
	C701.581543,372.762268 718.111572,360.037384 737.642578,361.097412 
	C756.370361,362.113892 771.497559,376.667114 773.488708,396.419922 
	C774.006775,401.558899 773.120544,407.121002 771.660828,412.133972 
	C757.916443,459.335266 743.911133,506.460663 729.973328,553.605652 
	C725.358887,569.214355 720.906311,584.874084 716.048645,600.406982 
	C709.680725,620.769043 691.403442,633.926575 670.190247,633.835876 
	C649.640625,633.747986 631.306580,620.049866 625.136047,599.877319 
	C613.622559,562.237854 602.247559,524.556091 590.798401,486.896973 
	C590.248047,485.086639 589.539062,483.324463 588.903870,481.539856 
	C588.292969,481.507324 587.682068,481.474792 587.071167,481.442261 
	C575.776428,518.420349 564.481750,555.398438 552.720825,592.367432 
	C552.162781,590.540894 551.992371,588.723389 551.990784,586.905823 
	C551.965332,558.314087 551.961548,529.722351 552.393066,501.053284 
	C568.678162,500.736115 575.937439,493.381378 575.934021,477.545532 
	C575.925720,439.409607 575.909729,401.273712 575.896912,363.137787 
z"/>
<path fill="#FB2457" opacity="1.000000" stroke="none" 
	d="
M438.001953,361.315826 
	C457.341278,359.802490 474.302551,372.202881 478.699066,391.531738 
	C485.301819,420.559784 491.616455,449.653351 498.063812,478.716797 
	C499.648529,485.860413 501.272736,492.995239 502.399170,500.533325 
	C478.265717,500.950226 454.611816,500.967865 430.957947,500.985535 
	C425.318237,482.232941 419.672211,463.482239 414.041901,444.726837 
	C411.758179,437.119476 409.508606,429.501862 407.105743,421.425873 
	C392.869812,424.270386 382.668701,431.898315 377.095581,444.716827 
	C374.647888,450.346741 373.537415,456.871552 373.242706,463.057800 
	C372.656891,475.355377 373.056915,487.699890 372.507660,500.478943 
	C348.061432,500.932770 324.157166,500.932678 300.252869,500.932587 
	C300.191711,488.498749 299.922791,476.061279 300.138489,463.632233 
	C300.296539,454.527710 298.055298,446.282410 293.339172,438.215210 
	C294.608948,436.896332 295.542511,435.870300 296.698425,435.279327 
	C305.782288,430.635406 314.928345,426.113281 324.015930,421.476593 
	C331.857422,417.475677 339.590576,413.259613 347.473022,409.342621 
	C359.761444,403.236176 372.140228,397.311584 384.472229,391.292572 
	C397.085632,385.136200 409.851624,379.263641 422.223724,372.654541 
	C427.886017,369.629761 434.753723,367.860229 438.001953,361.315826 
z"/>
<path fill="#010101" opacity="1.000000" stroke="none" 
	d="
M430.936707,501.383484 
	C454.611816,500.967865 478.265717,500.950226 502.375854,500.919861 
	C505.007446,510.213501 507.182709,519.519897 509.358002,528.826233 
	C509.940308,528.905273 510.522614,528.984253 511.104919,529.063293 
	C513.610779,519.881042 516.116577,510.698761 519.292053,501.219757 
	C530.625366,500.992218 541.289124,501.061432 551.952820,501.130615 
	C551.961548,529.722351 551.965332,558.314087 551.990784,586.905823 
	C551.992371,588.723389 552.162781,590.540894 552.510254,592.685425 
	C546.879517,618.437256 528.895081,633.837219 505.092834,633.834473 
	C484.742279,633.832031 465.916656,620.169373 460.073212,600.656677 
	C450.215607,567.739685 440.620819,534.744019 430.936707,501.383484 
z"/>
<path fill="#010101" opacity="1.000000" stroke="none" 
	d="
M300.168976,501.402344 
	C324.157166,500.932678 348.061432,500.932770 372.426208,500.937683 
	C372.929199,534.077759 373.327393,567.217834 372.874756,600.346252 
	C372.621338,618.892822 355.331696,634.015503 336.157715,633.834290 
	C316.384735,633.647339 300.470459,617.798523 300.147186,597.296814 
	C299.819061,576.484863 300.069824,555.663635 300.070892,534.846497 
	C300.071472,523.855042 300.080078,512.863586 300.168976,501.402344 
z"/>
<path fill="#F02556" opacity="1.000000" stroke="none" 
	d="
M437.605042,361.272858 
	C434.753723,367.860229 427.886017,369.629761 422.223724,372.654541 
	C409.851624,379.263641 397.085632,385.136200 384.472229,391.292572 
	C372.140228,397.311584 359.761444,403.236176 347.473022,409.342621 
	C339.590576,413.259613 331.857422,417.475677 324.015930,421.476593 
	C314.928345,426.113281 305.782288,430.635406 296.698425,435.279327 
	C295.542511,435.870300 294.608948,436.896332 293.257690,437.871735 
	C282.966278,425.265198 269.845612,419.781738 253.762054,420.812866 
	C243.931839,421.443054 234.681625,419.874207 227.279602,411.735199 
	C231.537430,408.867310 235.920792,406.675751 240.269241,404.416962 
	C249.600479,399.569794 258.878784,394.619507 268.244537,389.840363 
	C276.920074,385.413452 285.685852,381.163605 294.403351,376.818542 
	C301.622589,373.220215 308.895752,369.720428 315.998199,365.903778 
	C317.938599,364.861084 319.349701,362.833435 321.003693,361.257782 
	C356.457672,361.208099 391.911621,361.154877 427.365601,361.114624 
	C430.646423,361.110901 433.927307,361.189514 437.605042,361.272858 
z"/>
<path fill="#FB2457" opacity="1.000000" stroke="none" 
	d="
M552.393066,501.053253 
	C541.289124,501.061432 530.625366,500.992218 519.496460,500.900574 
	C522.998352,485.464111 526.918579,470.037781 530.944275,454.639069 
	C536.190613,434.571869 541.629028,414.554382 546.779541,394.462921 
	C550.758728,378.940521 560.013977,368.390656 575.536621,363.113037 
	C575.909729,401.273712 575.925720,439.409607 575.934021,477.545532 
	C575.937439,493.381378 568.678162,500.736115 552.393066,501.053253 
z"/>
<path fill="#E32453" opacity="1.000000" stroke="none" 
	d="
M320.540527,361.178955 
	C319.349701,362.833435 317.938599,364.861084 315.998199,365.903778 
	C308.895752,369.720428 301.622589,373.220215 294.403351,376.818542 
	C285.685852,381.163605 276.920074,385.413452 268.244537,389.840363 
	C258.878784,394.619507 249.600479,399.569794 240.269241,404.416962 
	C235.920792,406.675751 231.537430,408.867310 227.121368,411.419189 
	C218.532089,403.817749 215.823715,391.436005 220.155960,380.127625 
	C224.467819,368.872528 235.380585,361.145020 247.587891,361.098114 
	C271.750671,361.005249 295.914154,361.089203 320.540527,361.178955 
z"/>
</svg>